<?xml version="1.0" standalone="no"?>
<!DOCTYPE svg PUBLIC "-//W3C//DTD SVG 20010904//EN"
 "http://www.w3.org/TR/2001/REC-SVG-20010904/DTD/svg10.dtd">
<svg version="1.0" xmlns="http://www.w3.org/2000/svg"
 width="570.000000pt" height="570.000000pt" viewBox="0 0 570.000000 570.000000"
 preserveAspectRatio="xMidYMid meet">
<metadata>
Created by potrace 1.11, written by Peter Selinger 2001-2013
</metadata>
<g transform="translate(0.000000,570.000000) scale(0.100000,-0.100000)"
fill="#000000" stroke="none">
<path d="M1850 5392 c-73 -7 -121 -93 -79 -138 12 -13 25 -21 30 -18 10 6 49
-35 49 -52 0 -15 -22 -34 -46 -39 -11 -2 -34 -9 -53 -14 -19 -6 -37 -8 -42 -6
-4 3 -9 2 -11 -2 -1 -5 -26 -16 -55 -25 -64 -19 -82 -4 -60 52 18 48 14 56
-30 85 -45 28 -45 28 -77 10 -17 -11 -37 -25 -44 -32 -7 -7 -19 -13 -27 -13
-12 0 -30 -27 -27 -42 1 -5 -2 -8 -6 -8 -5 0 -8 -17 -7 -37 2 -33 6 -38 41
-48 60 -18 84 -33 78 -50 -4 -8 -10 -12 -15 -9 -5 3 -25 -11 -44 -31 -20 -19
-40 -35 -46 -35 -5 0 -14 -12 -19 -26 -6 -14 -14 -23 -19 -20 -5 3 -11 -1 -15
-9 -6 -17 -46 -21 -46 -5 0 6 -3 9 -7 9 -19 -3 -23 2 -13 21 8 15 6 24 -10 40
-36 36 -67 36 -106 -1 -19 -18 -34 -30 -34 -26 0 4 -6 2 -14 -5 -8 -7 -12 -16
-9 -20 2 -5 0 -8 -5 -8 -5 0 -9 -30 -8 -66 1 -58 4 -67 25 -78 26 -14 71 -1
71 20 0 25 30 23 47 -3 15 -22 15 -27 2 -37 -27 -21 -73 -99 -75 -125 0 -14
-4 -24 -9 -23 -4 2 -12 -2 -16 -10 -7 -10 -9 -10 -9 0 0 6 -5 12 -11 12 -5 0
-7 -6 -3 -12 4 -7 0 -6 -9 2 -9 8 -18 28 -21 44 -9 52 -78 76 -112 39 -12 -13
-24 -20 -27 -16 -4 3 -7 -1 -7 -10 0 -9 -5 -17 -11 -17 -5 0 -7 -5 -4 -10 4
-6 2 -16 -3 -23 -14 -17 -18 -59 -8 -76 6 -10 5 -12 -3 -7 -8 6 -8 1 1 -18 6
-14 18 -26 27 -26 14 0 14 -2 1 -11 -12 -9 -10 -10 8 -6 20 5 21 3 11 -10 -11
-12 -7 -12 26 2 61 26 74 28 90 15 12 -10 15 -10 15 0 0 8 3 11 6 7 3 -3 2
-12 -2 -19 -10 -16 -14 -32 -17 -80 -1 -21 -6 -38 -10 -38 -5 0 -6 -12 -3 -27
4 -19 0 -36 -13 -52 -16 -20 -22 -22 -47 -14 -16 5 -29 14 -29 19 -1 18 -16
54 -23 55 -4 0 -15 2 -24 4 -10 2 -18 -1 -18 -6 0 -5 -7 -9 -15 -9 -8 0 -19
-9 -25 -20 -6 -11 -8 -20 -4 -20 4 0 -1 -9 -11 -20 -22 -24 -28 -50 -12 -50 6
0 3 -6 -8 -13 -12 -10 -14 -16 -7 -21 7 -4 12 -15 12 -24 0 -10 9 -24 19 -32
11 -7 18 -16 16 -20 -2 -3 9 -11 26 -17 16 -6 29 -7 29 -2 0 5 6 9 14 9 7 0
16 10 19 21 4 15 11 20 21 16 9 -4 16 -3 16 1 0 11 50 8 51 -3 1 -16 6 -41 14
-65 5 -14 2 -25 -6 -30 -10 -7 -10 -12 -1 -23 21 -25 22 -76 1 -88 -15 -7 -21
-6 -25 6 -3 8 -10 12 -16 9 -5 -3 -8 1 -6 9 2 9 -1 16 -6 15 -5 0 -12 6 -17
14 -9 15 -59 22 -59 8 0 -5 -6 -7 -14 -4 -21 8 -30 -14 -31 -76 -2 -73 35
-147 77 -154 7 -1 19 -5 26 -9 7 -5 12 -3 12 3 0 6 5 8 10 5 6 -4 9 -1 8 7 -2
7 2 12 9 11 7 -2 10 3 7 11 -3 8 -1 17 5 21 6 3 11 1 11 -6 0 -7 9 -5 26 6 24
16 26 16 31 -4 3 -12 9 -21 13 -21 13 0 19 -39 6 -44 -6 -2 -2 -5 8 -5 11 -1
16 -4 13 -8 -4 -3 -1 -13 6 -21 10 -13 9 -15 -3 -8 -13 6 -13 6 0 -6 24 -20
19 -51 -8 -53 -13 -1 -26 3 -29 8 -4 6 -1 7 8 2 10 -6 11 -5 4 3 -5 6 -29 14
-51 18 -39 6 -42 5 -49 -22 -13 -47 -13 -108 1 -129 13 -19 14 -24 14 -45 0
-5 6 -10 14 -10 8 0 16 -5 18 -10 2 -6 13 -12 26 -15 12 -2 26 -7 32 -10 16
-10 49 32 46 60 -4 29 30 60 56 50 17 -7 50 -60 42 -68 -3 -3 4 -10 15 -16 35
-19 72 -62 69 -79 -2 -11 -15 -18 -33 -20 -17 -1 -37 -3 -45 -4 -8 0 -22 -9
-31 -20 -9 -10 -21 -18 -27 -18 -6 0 -14 -12 -19 -27 -9 -25 -5 -32 26 -63 20
-19 35 -38 33 -43 -1 -5 2 -6 8 -2 5 3 10 2 10 -2 0 -11 37 -34 61 -38 25 -5
81 14 74 25 -3 5 -1 11 5 15 14 8 13 48 -1 62 -17 17 -4 40 23 39 29 -2 91
-31 107 -50 7 -8 19 -12 27 -9 8 3 14 -1 14 -11 0 -16 4 -17 50 -20 18 -1 26
-7 28 -25 5 -31 -8 -42 -49 -43 -37 -1 -62 -15 -53 -29 3 -5 0 -9 -5 -9 -14 0
-14 -27 0 -32 5 -2 12 -12 13 -23 2 -11 9 -19 15 -18 6 2 28 -13 48 -33 27
-25 45 -34 61 -31 12 2 25 1 27 -4 11 -16 63 13 75 42 11 27 10 33 -11 57 -18
20 -19 23 -4 12 17 -12 16 -10 -3 11 l-22 26 25 27 c14 15 30 24 35 21 6 -3
10 -1 10 5 0 6 5 8 10 5 6 -4 8 -10 6 -14 -3 -4 0 -8 7 -9 7 -1 32 -4 57 -7
82 -10 108 -10 104 -3 -3 5 2 8 11 8 9 0 19 -9 22 -20 3 -11 9 -20 13 -20 4 0
7 -11 6 -24 0 -13 -4 -22 -7 -20 -9 5 -50 -41 -43 -49 4 -4 2 -12 -3 -19 -6
-8 -7 -22 -2 -33 4 -11 8 -16 8 -12 1 4 10 3 21 -3 11 -6 17 -16 14 -22 -4 -6
-3 -8 3 -5 6 4 24 3 40 -2 18 -5 37 -5 48 1 10 6 15 7 12 1 -3 -5 0 -10 8 -10
8 0 11 5 8 10 -4 6 2 8 14 5 26 -7 77 37 69 59 -3 8 -6 23 -6 33 0 12 -13 25
-34 35 -26 12 -33 21 -30 40 1 14 -2 25 -7 25 -4 0 -6 6 -3 13 3 9 26 13 69
14 36 0 71 6 79 12 20 17 88 -8 92 -33 3 -21 -11 -53 -20 -48 -16 7 -22 -1
-22 -28 0 -16 3 -30 8 -30 4 0 7 -6 6 -12 -2 -7 3 -12 10 -10 6 1 12 -2 12 -7
0 -10 75 -8 125 4 56 13 67 17 61 23 -3 3 4 19 17 36 29 39 29 61 -1 62 -12 1
-26 5 -30 9 -4 5 1 5 11 2 9 -4 17 -2 17 3 0 6 -3 10 -7 11 -5 0 -19 2 -33 5
-19 3 -21 2 -10 -6 21 -14 4 -13 -18 1 -24 15 -18 69 7 69 10 0 21 3 25 7 4 5
15 8 24 9 20 1 51 12 72 25 32 20 39 19 63 -5 22 -22 25 -32 21 -76 -4 -42 -2
-51 13 -57 10 -4 24 -13 32 -20 9 -10 17 -11 26 -3 11 9 25 14 71 23 6 2 19
10 28 20 10 9 23 17 30 17 8 0 12 10 11 25 -2 14 1 23 6 20 4 -3 12 7 15 22 5
17 3 28 -4 31 -7 2 -10 8 -6 13 3 5 0 8 -8 7 -7 -2 -12 3 -10 11 3 12 0 12
-12 1 -15 -12 -21 -7 -17 14 1 5 -4 5 -11 -1 -7 -5 -26 -9 -43 -8 -22 1 -31 8
-36 26 -7 29 -1 49 15 49 6 0 28 16 49 36 20 19 37 32 37 28 0 -3 7 -1 15 6 8
7 13 16 10 20 -8 13 18 18 41 8 26 -12 47 -45 37 -61 -11 -18 -13 -38 -2 -31
5 3 9 -1 9 -9 0 -20 29 -30 45 -17 9 8 15 8 20 0 4 -7 16 -4 33 9 44 32 87 72
88 82 1 5 2 10 4 12 1 1 2 17 3 36 1 23 -4 38 -17 46 -10 8 -16 17 -13 22 3 5
-5 10 -19 11 -13 1 -24 -3 -24 -10 0 -6 -3 -8 -7 -5 -3 4 -17 0 -29 -8 -21
-14 -24 -13 -48 15 -25 30 -26 60 -1 60 14 0 38 57 29 71 -3 5 2 12 10 15 9 3
13 10 10 15 -9 15 16 39 42 39 12 0 30 -10 38 -22 9 -12 16 -19 16 -14 0 5 11
-3 25 -18 24 -25 55 -35 55 -17 0 5 10 11 23 13 14 2 21 9 21 20 -1 10 2 15 7
13 4 -3 13 4 19 16 10 17 9 20 -2 13 -7 -4 -4 2 6 14 11 12 16 22 11 22 -4 0
-3 6 3 13 19 22 -5 91 -39 111 -16 9 -29 12 -29 7 0 -15 -79 -51 -111 -51 -38
0 -63 42 -32 54 9 4 12 2 7 -7 -4 -7 -3 -9 2 -4 5 5 10 23 11 40 6 78 10 99
24 108 23 14 35 10 47 -16 6 -14 16 -25 22 -25 6 0 9 -4 6 -8 -2 -4 6 -8 19
-7 26 0 84 58 86 84 5 88 4 109 -10 131 -9 14 -20 28 -26 32 -12 9 -81 11 -72
2 9 -9 -24 -64 -46 -75 -12 -7 -23 -4 -39 11 -13 12 -17 20 -9 20 7 0 11 6 8
14 -3 7 0 19 6 26 9 10 9 11 0 6 -8 -5 -13 -1 -14 11 -5 112 -5 162 2 158 4
-3 14 1 22 9 13 13 19 12 48 -10 37 -27 83 -29 109 -5 22 21 22 119 -1 156
-25 43 -61 74 -81 71 -10 -1 -29 -15 -43 -32 -26 -30 -34 -61 -12 -48 9 6 9 5
0 -7 -15 -18 -92 -17 -103 1 -5 7 -7 21 -5 32 2 10 -4 23 -14 30 -15 11 -19
25 -23 76 -1 6 -6 12 -11 12 -5 0 -4 7 3 15 7 8 21 15 31 15 10 0 23 8 28 18
10 15 10 15 11 -3 0 -17 6 -21 33 -20 39 1 69 14 61 26 -3 5 -1 25 5 44 7 25
6 33 -1 28 -7 -4 -9 0 -5 10 12 33 -60 124 -90 113 -7 -3 -15 -1 -18 4 -4 6
-15 6 -28 -2 -12 -6 -24 -10 -27 -9 -2 1 -7 -6 -11 -16 -7 -20 -1 -44 14 -54
12 -9 -63 -51 -79 -45 -8 3 -14 12 -14 20 0 8 -9 17 -19 21 -10 3 -22 16 -25
29 -3 13 -15 26 -26 29 -11 3 -25 17 -32 32 -14 32 2 47 42 40 28 -5 81 6 77
16 -1 3 4 13 11 22 8 10 11 25 7 38 -8 24 -65 107 -65 95 0 -4 -7 0 -16 8 -8
9 -20 14 -25 11 -5 -4 -9 -1 -9 6 0 8 -11 10 -35 6 -38 -6 -70 -31 -61 -46 4
-5 1 -11 -5 -13 -9 -3 -9 -9 -1 -25 23 -42 -56 -73 -92 -37 -9 8 -16 12 -16 7
-1 -4 -10 3 -20 16 -11 13 -20 20 -20 16 0 -4 -8 -1 -17 6 -15 12 -16 12 -8
-1 6 -12 5 -13 -5 -3 -10 9 -10 15 4 28 9 9 16 23 16 31 0 8 8 14 18 15 54 2
87 23 76 48 -3 9 -7 24 -8 34 -1 20 -71 87 -91 87 -8 0 -17 5 -20 10 -9 15
-53 6 -112 -23 -17 -7 -23 -19 -23 -41 0 -24 3 -27 10 -16 8 12 10 12 10 1 0
-7 9 -22 21 -32 l21 -18 -25 -36 c-14 -20 -28 -32 -31 -27 -3 6 -14 9 -24 8
-9 -2 -20 1 -24 7 -3 5 -19 11 -35 12 -15 2 -30 4 -33 5 -3 2 -14 3 -25 4 -14
1 -20 8 -20 26 0 14 5 28 10 32 6 5 5 8 -3 8 -7 0 -10 5 -7 10 4 6 11 8 16 5
5 -4 9 -1 9 5 0 6 4 9 9 5 13 -8 42 56 38 83 -5 36 -28 50 -93 56 -11 1 -25 6
-31 9 -7 4 -37 -4 -67 -18 -54 -24 -55 -26 -49 -58 3 -17 19 -44 34 -59 32
-30 34 -36 15 -60 -9 -13 -23 -16 -55 -13 -23 3 -46 7 -51 10 -6 4 -10 2 -10
-4 0 -5 -8 -8 -17 -6 -10 2 -18 4 -18 5 0 1 -12 3 -27 4 -16 1 -28 -2 -28 -6
0 -13 -19 -9 -40 9 -13 12 -16 20 -9 29 7 8 4 17 -8 30 -17 17 -17 17 0 11 12
-5 17 -1 17 13 0 11 3 20 8 20 4 0 13 10 20 21 12 19 11 24 -19 51 -33 30 -59
36 -129 30z"/>
<path d="M4370 3548 c0 -6 -6 -8 -14 -5 -21 8 -66 -41 -64 -68 2 -16 13 -29
35 -39 l34 -16 -20 -22 c-11 -11 -18 -26 -14 -31 3 -6 1 -7 -6 -3 -6 4 -9 11
-7 15 3 4 -2 8 -10 8 -8 0 -13 -6 -10 -13 3 -9 -3 -10 -22 -4 -31 8 -91 2
-109 -12 -13 -10 -28 6 -18 21 3 5 1 13 -5 16 -7 4 -4 13 9 24 27 24 48 76 27
68 -10 -4 -13 -1 -10 7 3 7 -1 13 -8 14 -22 2 -42 7 -54 14 -15 10 -84 -16
-111 -42 -26 -25 -30 -58 -8 -66 8 -4 13 -10 10 -15 -3 -4 4 -6 15 -4 14 3 20
-1 20 -14 0 -9 5 -22 12 -29 8 -8 8 -15 -2 -27 -15 -19 -70 -49 -70 -39 0 4
-7 1 -15 -6 -8 -7 -15 -9 -15 -4 0 4 -10 -3 -22 -15 l-21 -23 -13 23 c-10 20
-10 28 1 44 7 11 18 19 24 18 5 -2 7 7 4 20 -3 12 -6 30 -6 39 -1 14 -11 17
-59 15 -32 -2 -58 1 -58 6 0 5 -7 2 -15 -7 -8 -8 -15 -19 -15 -25 0 -6 -5 -11
-10 -11 -6 0 -9 -6 -8 -12 2 -7 -2 -12 -9 -11 -20 4 -25 -35 -7 -62 9 -14 21
-25 26 -25 6 0 19 -10 29 -21 24 -28 12 -50 -41 -80 -22 -13 -40 -26 -40 -30
0 -3 -12 -6 -26 -6 -14 0 -22 2 -18 6 20 14 25 78 7 93 -17 14 -73 19 -73 6 0
-4 -8 -8 -18 -8 -19 0 -51 -32 -71 -68 -14 -26 -14 -58 -1 -82 10 -18 12 -18
40 -2 28 16 30 16 50 -5 19 -22 20 -24 4 -48 -9 -14 -20 -25 -24 -25 -4 0 -7
-6 -6 -14 0 -8 -2 -14 -6 -13 -9 3 -37 -36 -32 -44 2 -4 -3 -12 -11 -19 -10
-8 -15 -9 -15 -2 0 7 -7 9 -17 5 -11 -4 -14 -3 -9 5 4 7 3 12 -3 12 -5 0 -8 8
-6 18 1 10 -3 26 -11 37 -8 10 -14 15 -14 9 0 -5 -4 -4 -8 2 -5 9 -16 7 -42
-5 -40 -18 -65 -63 -68 -121 -2 -32 2 -41 28 -60 l30 -21 26 20 c21 17 29 18
45 8 20 -13 25 -42 9 -52 -6 -4 -7 -11 -4 -17 4 -6 1 -14 -7 -18 -7 -5 -14
-31 -15 -61 -2 -29 -8 -55 -15 -59 -18 -12 -49 1 -49 21 0 36 -51 43 -78 11
-10 -12 -11 -13 -6 -2 4 9 3 12 -2 7 -5 -5 -9 -16 -9 -24 0 -9 -7 -18 -15 -20
-13 -4 -13 -3 0 6 8 6 10 11 4 11 -18 0 -24 -12 -14 -31 6 -10 6 -19 1 -21 -5
-2 -5 -21 -1 -43 4 -22 8 -37 9 -33 0 3 14 -7 31 -23 l30 -30 25 27 c13 14 22
30 19 35 -2 4 12 2 33 -5 21 -7 38 -19 38 -27 0 -8 4 -19 8 -26 4 -6 3 -14 -2
-17 -5 -4 -5 -21 1 -44 24 -94 25 -98 12 -110 -15 -14 -50 -16 -58 -3 -10 16
-59 6 -70 -14 -6 -11 -14 -22 -18 -25 -8 -6 -6 -30 5 -47 5 -7 4 -13 -1 -13
-5 0 -4 -17 3 -37 8 -23 20 -37 29 -37 8 1 14 -3 13 -9 -1 -6 13 -11 33 -11
22 0 34 5 32 13 -1 6 5 14 13 17 8 3 12 10 9 15 -3 5 0 9 6 9 6 0 9 4 5 9 -3
5 0 13 7 18 19 11 39 13 32 2 -3 -5 0 -9 5 -9 6 0 11 -9 11 -20 0 -11 4 -20 8
-20 8 0 36 -51 32 -58 -1 -2 6 -15 15 -29 15 -22 15 -27 2 -40 -12 -13 -18
-12 -47 5 -30 19 -33 19 -49 3 -10 -9 -16 -20 -13 -24 2 -5 -4 -14 -14 -21
-12 -9 -14 -15 -6 -20 7 -4 12 -19 12 -34 0 -19 3 -23 9 -13 6 10 11 5 16 -19
8 -34 53 -62 91 -55 10 2 22 4 27 4 4 1 7 8 7 17 0 10 5 12 13 7 6 -4 4 5 -6
21 -15 22 -16 30 -6 42 6 8 19 13 27 12 18 -3 79 -73 88 -100 4 -10 12 -18 20
-18 17 0 8 -25 -20 -55 -17 -18 -24 -20 -39 -11 -15 9 -21 7 -37 -14 -22 -29
-19 -78 7 -97 9 -7 29 -24 45 -38 15 -14 28 -23 28 -21 0 3 13 1 29 -4 21 -6
35 -4 48 6 13 10 14 13 4 14 -11 0 -9 4 5 15 16 13 17 16 4 25 -8 5 -12 10 -8
10 4 0 0 12 -8 28 -13 25 -13 28 8 45 14 12 24 15 26 8 2 -6 9 -11 16 -11 6 0
27 -13 46 -30 19 -16 38 -29 43 -30 13 0 46 -38 39 -45 -4 -4 -8 -11 -8 -16
-1 -5 -2 -13 -3 -17 -1 -11 -32 -9 -50 3 -10 5 -12 4 -7 -3 4 -7 3 -12 -3 -12
-6 0 -7 -7 -4 -17 5 -12 3 -14 -7 -8 -10 6 -11 4 -4 -6 5 -8 9 -18 9 -24 2
-25 19 -44 43 -50 15 -4 30 -11 33 -16 3 -6 30 -10 59 -11 88 0 100 39 31 99
-22 19 -23 23 -8 29 9 3 15 10 12 14 -9 14 15 22 29 10 11 -8 15 -8 19 2 3 8
6 8 6 2 1 -7 14 -10 32 -8 20 3 28 0 23 -8 -5 -7 -3 -8 7 -3 12 8 33 10 69 6
12 -1 1 -61 -15 -81 -7 -8 -10 -21 -7 -29 3 -8 0 -11 -7 -7 -17 11 -13 -11 6
-34 10 -11 27 -20 39 -20 12 0 25 -7 28 -15 4 -12 11 -13 23 -7 10 5 28 8 41
6 30 -5 92 57 66 66 -8 3 -15 9 -15 13 3 22 0 27 -15 27 -9 0 -12 5 -8 13 4 6
4 9 -1 5 -4 -4 -15 -3 -25 2 -12 6 -15 18 -12 39 4 32 13 35 100 34 12 0 22 4
22 8 0 5 7 9 16 9 8 0 12 -4 9 -10 -6 -9 8 -15 29 -11 5 1 3 -6 -5 -15 -9 -12
-9 -15 -1 -10 18 11 15 -9 -5 -25 -9 -8 -18 -13 -20 -11 -7 5 -4 -10 7 -38 8
-20 20 -30 34 -31 11 0 37 -2 56 -4 50 -5 68 2 85 36 9 16 15 30 14 31 -2 2 3
14 11 28 7 14 9 22 5 18 -4 -4 -14 0 -22 8 -9 8 -23 12 -34 9 -12 -4 -19 -2
-19 7 0 10 -3 9 -10 -2 -8 -12 -10 -11 -10 8 0 12 5 22 11 22 5 0 7 5 3 12 -4
6 -3 8 3 5 5 -4 20 3 32 14 12 11 27 18 34 16 7 -2 30 6 52 19 39 22 41 22 63
4 25 -20 28 -40 10 -58 -7 -7 -13 -20 -13 -30 0 -19 26 -51 38 -45 4 2 7 -1 7
-7 0 -17 42 -8 62 13 11 12 17 14 20 6 5 -16 68 79 68 102 0 10 -13 25 -30 34
-16 9 -30 13 -30 10 0 -4 -13 2 -30 12 -16 9 -30 22 -30 28 0 6 21 27 47 46
25 19 54 40 64 47 15 12 21 10 39 -8 17 -17 21 -29 16 -55 -6 -28 -3 -36 14
-45 12 -6 20 -7 20 -1 0 5 11 8 24 5 18 -3 35 6 65 36 23 23 41 44 42 48 0 4
2 16 4 26 4 22 -21 76 -35 76 -6 0 -10 -5 -10 -11 0 -5 -5 -7 -10 -4 -6 4 -17
1 -25 -5 -11 -9 -19 -10 -28 -1 -8 6 -16 9 -19 6 -3 -3 -5 13 -4 34 0 22 3 39
7 38 10 -3 61 61 63 80 2 11 12 17 27 17 19 1 25 -5 27 -29 3 -34 41 -87 48
-69 3 7 14 9 26 6 12 -3 19 -1 15 5 -3 5 3 16 14 24 21 15 43 79 40 119 0 14
-11 33 -23 42 -20 14 -26 15 -55 3 -37 -15 -58 -12 -67 11 -4 10 -2 13 7 8 8
-5 7 -2 -2 9 -7 9 -9 17 -4 17 10 0 10 1 16 65 5 57 34 59 85 6 l40 -41 36 36
c20 20 36 41 37 47 0 7 2 27 4 46 3 25 -2 39 -20 57 -12 12 -21 25 -18 27 2 3
-5 8 -17 12 -23 7 -60 -18 -60 -40 0 -7 -11 -15 -25 -17 -20 -4 -28 1 -40 25
-18 36 -19 59 -3 75 9 9 9 12 -1 12 -7 0 -9 5 -6 10 3 6 2 10 -3 10 -5 0 -9 7
-9 15 0 8 4 15 9 15 5 0 7 4 4 9 -10 15 33 20 45 5 7 -8 25 -24 41 -36 l29
-20 30 28 c16 15 29 34 29 41 0 7 6 13 13 13 8 0 8 3 1 8 -6 4 -10 20 -9 35 1
16 -4 31 -11 34 -8 3 -14 9 -14 15 0 5 5 6 12 2 7 -4 8 -3 4 5 -4 6 -11 9 -16
6 -4 -3 -15 6 -24 19 -15 23 -17 24 -45 10 -37 -18 -60 -44 -40 -45 8 0 3 -5
-10 -10 -32 -13 -42 -8 -65 31 -13 23 -14 30 -5 25 11 -6 12 -5 2 6 -7 7 -13
25 -13 40 0 15 -7 39 -15 55 -21 42 19 68 66 43 33 -17 60 -19 66 -4 3 8 10
12 17 8 6 -4 5 1 -3 10 -8 10 -9 17 -3 17 12 0 10 33 -4 65 -14 35 -51 84 -58
78 -3 -4 -6 -1 -6 6 0 7 -4 9 -10 6 -5 -3 -10 -2 -10 4 0 7 -10 6 -30 0 -24
-9 -30 -17 -30 -40 0 -41 -1 -43 -22 -57 -20 -15 -53 -9 -43 8 3 5 1 10 -4 10
-6 0 -11 7 -11 15 0 8 -13 30 -30 48 -16 19 -30 38 -30 42 0 4 -10 15 -22 25
l-23 19 40 16 c67 26 90 43 87 62 -7 36 -27 73 -41 73 -8 0 -11 3 -8 6 10 10
-35 42 -63 45 -14 2 -31 0 -37 -4 -8 -5 -13 -3 -13 5 -1 16 -21 -17 -25 -40
-1 -10 2 -25 7 -35 11 -21 -3 -50 -26 -53 -9 -1 -14 1 -11 5 2 4 -15 18 -39
30 -24 12 -49 28 -56 36 -7 8 -18 15 -26 15 -7 0 -18 9 -24 21 -14 25 0 46 33
51 36 5 31 56 -9 95 -19 18 -34 28 -34 22 0 -7 -6 -6 -17 2 -11 9 -14 10 -9 2
5 -9 2 -11 -8 -7 -9 3 -16 10 -16 15 0 12 -21 7 -38 -9 -8 -7 -17 -10 -20 -8
-4 2 -17 -6 -29 -18 -25 -24 -17 -41 30 -65 30 -16 36 -31 12 -31 -8 0 -15 -5
-15 -11 0 -8 -5 -8 -15 1 -8 7 -21 10 -30 7 -8 -4 -22 1 -30 10 -11 10 -27 14
-49 10 -56 -9 -81 27 -39 59 14 10 29 29 34 41 10 26 -6 78 -20 69 -5 -4 -15
-1 -23 6 -15 15 -88 20 -88 6z"/>
<path d="M1277 2619 c-9 -9 -17 -20 -17 -25 0 -5 5 -2 10 6 5 8 10 10 10 4 0
-6 -3 -14 -7 -18 -17 -16 -9 -38 23 -62 19 -15 34 -32 34 -40 0 -17 -29 -32
-57 -29 -13 1 -23 -1 -23 -4 0 -3 -19 -7 -42 -7 -24 -1 -54 -4 -66 -7 -19 -5
-23 -3 -18 9 3 9 1 12 -4 9 -6 -3 -10 0 -10 9 0 8 -3 22 -6 30 -5 12 -2 15 10
10 9 -4 16 -1 16 6 0 7 6 10 13 7 8 -3 12 5 12 22 0 29 -16 51 -37 51 -8 0
-19 5 -24 10 -16 16 -93 0 -119 -24 -36 -33 -41 -69 -14 -95 12 -11 27 -17 33
-14 6 3 8 3 4 -2 -4 -4 -3 -14 4 -22 15 -18 -9 -63 -34 -63 -10 0 -18 -4 -18
-10 0 -5 -4 -10 -10 -10 -5 0 -7 8 -3 18 5 13 1 12 -16 -5 -12 -13 -30 -23
-39 -23 -10 0 -23 -5 -28 -10 -7 -7 -10 -2 -10 15 0 14 3 25 8 25 4 0 14 14
23 30 10 19 11 30 5 30 -6 0 -9 4 -5 9 7 12 -21 41 -41 42 -32 3 -40 2 -66 -9
-36 -15 -88 -86 -81 -112 3 -11 12 -25 21 -32 13 -11 14 -11 8 0 -7 11 -4 12
13 3 22 -12 30 -27 9 -16 -7 4 -6 1 3 -7 26 -22 29 -44 7 -59 -12 -8 -36 -27
-55 -43 -19 -16 -40 -26 -48 -22 -17 6 -20 22 -5 31 11 7 3 53 -13 73 -12 15
-47 16 -47 0 0 -6 -3 -8 -7 -5 -3 4 -13 1 -21 -6 -11 -8 -14 -8 -9 0 4 6 3 15
-3 18 -6 4 -9 2 -8 -3 2 -5 -16 -26 -39 -46 -33 -30 -41 -45 -41 -69 1 -42 24
-60 58 -47 32 12 57 4 60 -20 4 -29 0 -41 -12 -34 -6 4 -8 3 -5 -3 4 -6 -13
-35 -37 -66 -40 -52 -45 -55 -63 -42 -12 8 -23 25 -27 39 -3 13 -17 31 -30 39
-23 15 -26 15 -61 -13 -21 -17 -34 -30 -30 -30 4 0 3 -6 -3 -12 -13 -16 -17
-68 -8 -90 4 -9 4 -22 0 -29 -4 -8 -3 -9 4 -5 7 4 12 3 12 -1 0 -5 9 -9 20
-10 11 -1 20 2 20 7 0 5 7 7 15 4 8 -4 17 1 21 9 5 13 9 14 25 4 20 -13 28
-77 8 -77 -5 0 -7 -4 -4 -10 3 -5 0 -10 -7 -10 -9 0 -9 -3 2 -10 12 -8 12 -10
-5 -10 -14 0 -16 -3 -7 -8 9 -7 10 -15 3 -35 -6 -14 -8 -35 -6 -47 7 -38 -24
-36 -58 4 -18 20 -39 36 -47 36 -31 -1 -66 -47 -61 -79 2 -8 -3 -25 -10 -38
-11 -21 -9 -27 20 -57 36 -37 89 -46 83 -14 -1 8 5 22 15 29 15 12 16 12 8 -1
-6 -12 -5 -13 6 -2 16 14 43 16 34 2 -3 -5 0 -10 7 -10 8 0 14 -8 15 -17 3
-68 8 -103 16 -103 5 0 7 -12 4 -27 -3 -15 -1 -36 5 -46 11 -21 6 -30 -20 -32
-9 0 -23 -4 -29 -8 -6 -4 -15 -2 -19 4 -5 8 -3 9 6 4 8 -5 11 -4 7 2 -9 14
-72 10 -91 -7 -19 -15 -20 -45 -5 -105 24 -95 95 -110 133 -28 23 51 49 61 66
24 6 -14 12 -28 12 -31 1 -3 12 -22 25 -42 13 -21 20 -38 17 -38 -4 0 1 -9 11
-20 17 -19 17 -20 -15 -34 -30 -12 -35 -11 -52 6 -17 17 -20 17 -34 3 -9 -8
-18 -15 -22 -15 -14 0 -5 -71 14 -110 20 -41 28 -47 81 -60 39 -9 56 7 55 49
0 17 8 37 19 47 18 16 19 16 30 -14 6 -17 21 -38 35 -46 13 -9 31 -28 41 -42
15 -24 15 -28 2 -38 -9 -6 -18 -17 -20 -25 -3 -8 -12 -15 -20 -17 -7 -1 -25
-4 -39 -7 -21 -3 -25 -9 -25 -45 0 -23 3 -42 6 -42 3 0 24 -16 47 -35 41 -36
95 -52 120 -36 10 6 12 25 9 67 -3 43 0 62 11 73 13 13 17 12 33 -8 11 -13 19
-20 19 -15 0 4 10 -2 23 -14 13 -12 27 -19 30 -15 4 3 7 1 7 -6 0 -7 4 -10 9
-7 12 8 27 -15 27 -39 -1 -13 -13 -25 -33 -34 -33 -15 -60 -56 -42 -66 5 -4
16 -21 24 -38 9 -18 13 -23 10 -12 -4 15 1 13 20 -10 15 -16 24 -24 20 -17 -8
16 6 15 29 -1 21 -15 61 -11 74 7 4 6 13 23 20 38 10 24 9 26 -5 21 -10 -4
-14 -2 -10 4 4 6 0 16 -8 23 -13 11 -13 16 1 41 17 33 30 36 63 12 19 -13 28
-14 42 -4 11 6 19 8 19 3 0 -4 10 -8 22 -9 12 -1 28 -9 36 -17 14 -14 14 -17
0 -33 -23 -25 -39 -71 -28 -78 5 -3 7 -12 4 -19 -3 -8 0 -17 7 -22 8 -5 10 -3
4 6 -5 8 5 5 21 -7 41 -29 126 -25 154 7 11 13 20 27 20 32 0 18 -21 48 -34
48 -14 0 -34 33 -40 65 -3 17 2 20 33 21 56 2 109 8 108 14 -1 3 3 5 8 5 6 0
9 -4 7 -9 -1 -4 3 -15 10 -23 11 -13 9 -18 -10 -31 -30 -20 -28 -34 10 -62 29
-22 104 -38 93 -20 -3 4 2 10 10 14 8 3 17 0 21 -5 10 -17 45 28 51 65 4 25 1
35 -12 40 -9 3 -21 4 -26 0 -12 -7 -33 16 -37 42 -3 24 16 43 50 49 12 3 33 7
45 9 12 3 32 14 45 25 20 19 23 19 39 5 20 -18 31 -62 16 -67 -23 -7 -16 -45
10 -63 31 -20 90 -27 100 -11 4 6 1 7 -7 2 -9 -5 -11 -4 -6 3 4 7 13 12 19 12
21 1 57 38 69 70 14 40 -4 61 -56 64 -45 2 -71 26 -61 56 4 12 9 19 13 16 3
-4 20 10 39 30 18 20 33 33 33 28 0 -4 6 1 14 11 13 18 14 18 39 -7 18 -18 23
-32 20 -51 -3 -16 -1 -27 6 -27 5 0 8 -6 5 -14 -4 -9 5 -15 25 -18 24 -3 39 3
68 28 21 18 42 30 48 27 5 -4 7 -3 3 1 -3 4 2 16 12 26 13 13 17 28 14 47 -10
56 -58 80 -94 48 -15 -14 -19 -13 -35 5 -11 13 -15 25 -10 37 10 22 12 29 14
46 0 8 12 20 26 27 13 7 22 16 20 20 -3 4 5 18 16 31 25 29 37 18 43 -38 4
-33 33 -62 57 -56 29 8 91 74 85 90 -3 7 0 13 7 13 8 0 8 3 2 8 -12 8 -13 22
-2 38 4 7 -2 23 -13 35 -11 13 -19 20 -20 15 0 -5 -7 -3 -15 4 -10 9 -15 9
-15 1 0 -18 -56 -13 -81 7 -17 15 -19 21 -9 27 9 6 11 4 5 -6 -5 -8 -4 -11 0
-6 5 4 10 28 12 53 1 25 7 52 12 58 6 7 9 16 6 20 -3 3 0 2 6 -3 6 -5 18 -7
25 -4 8 3 14 1 14 -4 0 -11 54 -73 63 -73 15 0 67 68 67 88 0 13 4 20 10 17
13 -8 13 10 -1 57 -12 45 -51 70 -87 57 -13 -5 -21 -12 -18 -17 2 -4 -3 -18
-12 -30 l-17 -22 -27 25 c-22 20 -26 31 -21 55 3 19 0 36 -8 47 -12 14 -12 15
0 9 10 -6 12 -4 7 11 -8 25 32 72 45 51 5 -7 9 -9 9 -4 0 4 8 -2 18 -14 16
-19 24 -22 55 -16 28 5 38 13 43 32 7 27 -2 83 -18 120 -15 33 -56 58 -72 45
-7 -6 -16 -8 -19 -4 -4 3 -10 -8 -13 -25 -13 -65 -76 -45 -88 28 -3 21 -11 51
-18 67 -21 51 -16 70 22 77 3 1 11 5 19 10 9 6 18 4 25 -6 36 -49 92 5 73 72
-2 8 -7 27 -12 43 -4 15 -11 27 -16 27 -5 0 -6 7 -3 15 4 9 0 15 -7 16 -15 1
-37 5 -54 10 -21 6 -56 -13 -54 -29 3 -25 -10 -49 -36 -66 -24 -16 -25 -15
-61 47 -20 34 -41 65 -48 69 -6 4 -6 8 -1 8 6 0 5 3 -1 8 -6 4 -14 19 -18 35
-6 25 -4 27 23 27 17 0 42 5 56 12 22 10 25 17 22 42 -6 41 -17 66 -29 66 -5
0 -6 5 -3 10 3 6 -2 10 -12 10 -10 0 -29 9 -43 20 -27 21 -57 25 -79 11 -16
-10 -22 -60 -10 -77 5 -6 3 -19 -5 -29 -13 -18 -15 -18 -49 8 -20 15 -39 27
-44 27 -4 0 -19 9 -33 20 -14 11 -33 20 -42 20 -24 0 -23 23 2 45 11 10 20 14
20 9 1 -28 20 27 20 56 0 42 -28 71 -72 75 -16 1 -34 7 -41 14 -14 14 -37 15
-37 1 0 -5 -10 -12 -22 -15 -24 -6 -56 -57 -39 -63 18 -6 61 -43 61 -53 0 -18
-43 -27 -58 -13 -12 12 -40 18 -79 17 -7 -1 -13 4 -13 9 0 6 -6 6 -14 -1 -11
-9 -18 -8 -30 5 -15 14 -15 19 -3 33 8 9 13 21 10 27 -2 6 5 14 16 17 29 7 26
73 -3 89 -26 14 -96 19 -96 7 0 -5 -5 -9 -11 -9 -5 0 -8 3 -6 8 9 14 -40 7
-56 -9z"/>
<path d="M630 650 c0 -5 5 -10 11 -10 5 0 7 5 4 10 -3 6 -8 10 -11 10 -2 0 -4
-4 -4 -10z"/>
</g>
</svg>
